<?xml version="1.0" ?><!DOCTYPE svg  PUBLIC '-//W3C//DTD SVG 1.1//EN'  'http://www.w3.org/Graphics/SVG/1.1/DTD/svg11.dtd'><svg enable-background="new 0 0 512 512" height="512px" id="Calque_1" version="1.1" viewBox="0 0 512 512" width="512px" xml:space="preserve" xmlns="http://www.w3.org/2000/svg" xmlns:xlink="http://www.w3.org/1999/xlink"><g><g><g id="XMLID_1_"><g><polygon fill="#2FC1F1" points="486.59,144.95 25.41,144.95 33.97,131.5 95.59,34.67 416.41,34.67 478.03,131.5     "/><path d="M256,144.95v48.04c0,15.92-12.9,28.83-28.82,28.83s-28.83-12.91-28.83-28.83v-48.04H256z" fill="#FFC035"/><path d="M486.59,144.95v48.04c0,15.92-12.91,28.82-28.83,28.82c-1.82,0-3.6-0.16-5.33-0.5h-0.01      c-13.36-2.49-23.48-14.23-23.48-28.32v-38.43v-9.61H486.59z" fill="#FFC035"/><path d="M428.94,154.56v38.43c0,15.92-12.9,28.83-28.82,28.83c-15.92,0-28.83-12.91-28.83-28.83v-48.04h57.65      V154.56z" fill="#2FC1F1"/><path d="M371.29,144.95v48.04c0,15.92-12.9,28.83-28.82,28.83c-15.92,0-28.82-12.91-28.82-28.83v-48.04H371.29z" fill="#FFC035"/><path d="M313.65,144.95v48.04c0,15.92-12.91,28.83-28.83,28.83c-15.92,0-28.82-12.91-28.82-28.83v-48.04H313.65z      " fill="#2FC1F1"/><path d="M198.35,144.95v48.04c0,15.92-12.9,28.83-28.82,28.83s-28.82-12.91-28.82-28.83v-48.04H198.35z" fill="#2FC1F1"/><path d="M140.71,144.95v48.04c0,15.92-12.91,28.83-28.83,28.83c-15.91,0-28.82-12.91-28.82-28.83v-48.04H140.71z      " fill="#FFC035"/><path d="M83.06,144.95v48.04c0,10.89-6.03,20.37-14.94,25.27c-4.12,2.27-8.85,3.56-13.88,3.56      c-15.92,0-28.83-12.91-28.83-28.83v-48.04H83.06z" fill="#2FC1F1"/><polygon fill="#526471" points="483.92,458.11 483.92,477.33 41.96,477.33 41.96,458.11 68.12,458.11 106.55,458.11       221.84,458.11 452.43,458.11     "/><rect fill="#303C44" height="21.88" width="230.59" x="221.84" y="436.23"/><polygon fill="#A7B7C1" points="221.84,436.23 221.84,458.11 106.55,458.11 106.55,292.11 221.84,292.11     "/><rect fill="#2FC1F1" height="163.33" width="153.72" x="260.27" y="244.07"/><path d="M428.94,192.99c0,14.09,10.12,25.83,23.48,28.32h0.01v214.92H221.84V292.11H106.55v166H68.12V218.26      c8.91-4.9,14.94-14.38,14.94-25.27c0,15.92,12.91,28.83,28.82,28.83c15.92,0,28.83-12.91,28.83-28.83      c0,15.92,12.9,28.83,28.82,28.83s28.82-12.91,28.82-28.83c0,15.92,12.91,28.83,28.83,28.83S256,208.91,256,192.99      c0,15.92,12.9,28.83,28.82,28.83c15.92,0,28.83-12.91,28.83-28.83c0,15.92,12.9,28.83,28.82,28.83      c15.92,0,28.82-12.91,28.82-28.83c0,15.92,12.91,28.83,28.83,28.83C416.04,221.82,428.94,208.91,428.94,192.99z M413.99,407.4      V244.07H260.27V407.4H413.99z" fill="#ECEFF0"/><path d="M452.42,221.31c-13.36-2.49-23.48-14.23-23.48-28.32c0,15.92-12.9,28.83-28.82,28.83      s-28.83-12.91-28.83-28.83c0,15.92-12.9,28.83-28.82,28.83c-15.92,0-28.82-12.91-28.82-28.83c0,15.92-12.91,28.83-28.83,28.83      S256,208.91,256,192.99c0,15.92-12.9,28.83-28.82,28.83s-28.83-12.91-28.83-28.83c0,15.92-12.9,28.83-28.82,28.83      c-15.92,0-28.82-12.91-28.82-28.83c0,15.92-12.91,28.83-28.83,28.83c-15.91,0-28.82-12.91-28.82-28.83      c0,10.89-6.03,20.37-14.94,25.27v10.5c8.91-4.9,14.94-14.38,14.94-25.27c0,15.92,12.91,28.83,28.82,28.83      c15.92,0,28.83-12.91,28.83-28.83c0,15.92,12.9,28.83,28.82,28.83c15.92,0,28.82-12.91,28.82-28.83      c0,15.92,12.91,28.83,28.83,28.83S256,219.41,256,203.49c0,15.92,12.9,28.83,28.82,28.83s28.83-12.91,28.83-28.83      c0,15.92,12.9,28.83,28.82,28.83c15.92,0,28.82-12.91,28.82-28.83c0,15.92,12.91,28.83,28.83,28.83s28.82-12.91,28.82-28.83      c0,14.09,10.12,25.83,23.48,28.32h0.01v-10.5H452.42z" fill="#303C44" opacity="0.2"/></g><g><polyline fill="none" points="452.43,458.11 452.43,436.23 452.43,221.31     "/><line fill="none" x1="68.12" x2="68.12" y1="218.26" y2="458.11"/><polygon fill="none" points="486.59,144.95 416.41,34.67 95.59,34.67 25.41,144.95 83.06,144.95 140.71,144.95 198.35,144.95       256,144.95 313.65,144.95 371.29,144.95 428.94,144.95     "/><line fill="none" x1="486.59" x2="486.59" y1="192.99" y2="144.95"/><path d="M428.94,192.99c0,14.09,10.12,25.83,23.48,28.32h0.01c1.73,0.34,3.51,0.5,5.33,0.5      c15.92,0,28.83-12.9,28.83-28.82" fill="none"/><polyline fill="none" points="428.94,144.95 428.94,154.56 428.94,192.99     "/><path d="M428.94,192.99c0,15.92-12.9,28.83-28.82,28.83c-15.92,0-28.83-12.91-28.83-28.83" fill="none"/><line fill="none" x1="371.29" x2="371.29" y1="192.99" y2="144.95"/><path d="M371.29,192.99c0,15.92-12.9,28.83-28.82,28.83c-15.92,0-28.82-12.91-28.82-28.83" fill="none"/><line fill="none" x1="313.65" x2="313.65" y1="192.99" y2="144.95"/><path d="M313.65,192.99c0,15.92-12.91,28.83-28.83,28.83c-15.92,0-28.82-12.91-28.82-28.83" fill="none"/><line fill="none" x1="256" x2="256" y1="192.99" y2="144.95"/><path d="M256,192.99c0,15.92-12.9,28.83-28.82,28.83s-28.83-12.91-28.83-28.83" fill="none"/><line fill="none" x1="198.35" x2="198.35" y1="192.99" y2="144.95"/><path d="M198.35,192.99c0,15.92-12.9,28.83-28.82,28.83s-28.82-12.91-28.82-28.83" fill="none"/><line fill="none" x1="140.71" x2="140.71" y1="192.99" y2="144.95"/><path d="M140.71,192.99c0,15.92-12.91,28.83-28.83,28.83c-15.91,0-28.82-12.91-28.82-28.83" fill="none"/><line fill="none" x1="83.06" x2="83.06" y1="192.99" y2="144.95"/><path d="M83.06,192.99c0,10.89-6.03,20.37-14.94,25.27c-4.12,2.27-8.85,3.56-13.88,3.56      c-15.92,0-28.83-12.91-28.83-28.83" fill="none"/><line fill="none" x1="25.41" x2="25.41" y1="144.95" y2="192.99"/><polyline fill="none" points="221.84,458.11 221.84,436.23 221.84,292.11 106.55,292.11 106.55,458.11     "/><rect fill="none" height="163.33" width="153.72" x="260.27" y="244.07"/><line fill="none" x1="221.84" x2="452.43" y1="436.23" y2="436.23"/><polygon fill="none" points="452.43,458.11 483.92,458.11 483.92,477.33 41.96,477.33 41.96,458.11 68.12,458.11 106.55,458.11       221.84,458.11     "/></g></g></g><linearGradient gradientUnits="userSpaceOnUse" id="SVGID_1_" x1="38.5629" x2="93.4636" y1="194.6666" y2="162.9696"><stop offset="0" style="stop-color:#000000"/><stop offset="1" style="stop-color:#FFFFFF;stop-opacity:0"/></linearGradient><path d="M83.06,144.95v48.04c0,10.89-6.03,20.37-14.94,25.27c-4.12,2.27-8.85,3.56-13.88,3.56   v-76.87H83.06z" fill="url(#SVGID_1_)" opacity="0.2"/><linearGradient gradientUnits="userSpaceOnUse" id="SVGID_2_" x1="96.2079" x2="151.1086" y1="194.6666" y2="162.9696"><stop offset="0" style="stop-color:#000000"/><stop offset="1" style="stop-color:#FFFFFF;stop-opacity:0"/></linearGradient><path d="M140.705,144.95v48.04c0,10.89-6.03,20.37-14.94,25.27   c-4.12,2.27-8.85,3.56-13.88,3.56v-76.87H140.705z" fill="url(#SVGID_2_)" opacity="0.2"/><linearGradient gradientUnits="userSpaceOnUse" id="SVGID_3_" x1="153.8529" x2="208.7536" y1="194.6666" y2="162.9696"><stop offset="0" style="stop-color:#000000"/><stop offset="1" style="stop-color:#FFFFFF;stop-opacity:0"/></linearGradient><path d="M198.35,144.95v48.04c0,10.89-6.03,20.37-14.94,25.27   c-4.12,2.27-8.85,3.56-13.88,3.56v-76.87H198.35z" fill="url(#SVGID_3_)" opacity="0.2"/><linearGradient gradientUnits="userSpaceOnUse" id="SVGID_4_" x1="211.498" x2="266.3987" y1="194.6666" y2="162.9696"><stop offset="0" style="stop-color:#000000"/><stop offset="1" style="stop-color:#FFFFFF;stop-opacity:0"/></linearGradient><path d="M255.995,144.95v48.04c0,10.89-6.03,20.37-14.94,25.27   c-4.12,2.27-8.85,3.56-13.88,3.56v-76.87H255.995z" fill="url(#SVGID_4_)" opacity="0.2"/><linearGradient gradientUnits="userSpaceOnUse" id="SVGID_5_" x1="269.1429" x2="324.0436" y1="194.6666" y2="162.9696"><stop offset="0" style="stop-color:#000000"/><stop offset="1" style="stop-color:#FFFFFF;stop-opacity:0"/></linearGradient><path d="M313.64,144.95v48.04c0,10.89-6.03,20.37-14.94,25.27   c-4.12,2.27-8.85,3.56-13.88,3.56v-76.87H313.64z" fill="url(#SVGID_5_)" opacity="0.2"/><linearGradient gradientUnits="userSpaceOnUse" id="SVGID_6_" x1="326.788" x2="381.6887" y1="194.6666" y2="162.9696"><stop offset="0" style="stop-color:#000000"/><stop offset="1" style="stop-color:#FFFFFF;stop-opacity:0"/></linearGradient><path d="M371.285,144.95v48.04c0,10.89-6.03,20.37-14.94,25.27   c-4.12,2.27-8.85,3.56-13.88,3.56v-76.87H371.285z" fill="url(#SVGID_6_)" opacity="0.2"/><linearGradient gradientUnits="userSpaceOnUse" id="SVGID_7_" x1="384.433" x2="439.3336" y1="194.6666" y2="162.9696"><stop offset="0" style="stop-color:#000000"/><stop offset="1" style="stop-color:#FFFFFF;stop-opacity:0"/></linearGradient><path d="M428.93,144.95v48.04c0,10.89-6.03,20.37-14.94,25.27   c-4.12,2.27-8.85,3.56-13.88,3.56v-76.87H428.93z" fill="url(#SVGID_7_)" opacity="0.2"/><linearGradient gradientUnits="userSpaceOnUse" id="SVGID_8_" x1="442.078" x2="496.9787" y1="194.6666" y2="162.9696"><stop offset="0" style="stop-color:#000000"/><stop offset="1" style="stop-color:#FFFFFF;stop-opacity:0"/></linearGradient><path d="M486.575,144.95v48.04c0,10.89-6.03,20.37-14.94,25.27   c-4.12,2.27-8.85,3.56-13.88,3.56v-76.87H486.575z" fill="url(#SVGID_8_)" opacity="0.2"/><rect fill="#303C44" height="72.76" width="88.61" x="119.89" y="374.02"/><linearGradient gradientUnits="userSpaceOnUse" id="SVGID_9_" x1="317.1175" x2="407.2875" y1="323.9325" y2="414.1025"><stop offset="0" style="stop-color:#000000"/><stop offset="1" style="stop-color:#FFFFFF;stop-opacity:0"/></linearGradient><polygon fill="url(#SVGID_9_)" opacity="0.1" points="413.99,280.49 413.99,407.4 260.27,407.4 260.27,380.78  "/><linearGradient gradientUnits="userSpaceOnUse" id="SVGID_10_" x1="164.195" x2="221.84" y1="375.11" y2="375.11"><stop offset="0" style="stop-color:#000000"/><stop offset="1" style="stop-color:#FFFFFF;stop-opacity:0"/></linearGradient><rect fill="url(#SVGID_10_)" height="166" opacity="0.2" width="57.645" x="164.195" y="292.11"/><rect height="10.94" opacity="0.2" width="230.59" x="221.84" y="447.17"/><rect height="10.94" opacity="0.2" width="441.96" x="41.96" y="466.39"/><polygon fill="#303C44" opacity="0.2" points="486.59,144.95 25.41,144.95 33.97,131.5 478.03,131.5  "/></g></svg>