<?xml version="1.0" ?><!DOCTYPE svg  PUBLIC '-//W3C//DTD SVG 1.1//EN'  'http://www.w3.org/Graphics/SVG/1.1/DTD/svg11.dtd'><svg height="100%" style="fill-rule:evenodd;clip-rule:evenodd;stroke-linejoin:round;stroke-miterlimit:1.41421;" version="1.1" viewBox="0 0 462 467" width="100%" xml:space="preserve" xmlns="http://www.w3.org/2000/svg" xmlns:serif="http://www.serif.com/" xmlns:xlink="http://www.w3.org/1999/xlink"><g transform="matrix(1,0,0,1,13.5266,-2.30393)"><path d="M121.961,94.834L284.995,94.834C288.944,94.834 292.709,95.334 293.413,95.961L336.077,133.888C337.598,135.241 334.035,136.36 328.087,136.36L82.531,136.36C76.583,136.36 72.921,135.241 74.323,133.888L113.642,95.961C114.292,95.334 118.012,94.834 121.961,94.834Z" id="Rounded-Rectangle-2-copy" style="fill:rgb(241,247,255);"/><path d="M338.846,140.946C338.846,135.427 334.366,130.946 328.846,130.946L81.321,130.946C75.802,130.946 71.321,135.427 71.321,140.946L71.321,388.595C71.321,394.114 75.802,398.595 81.321,398.595L328.846,398.595C334.366,398.595 338.846,394.114 338.846,388.595L338.846,140.946Z" id="Rounded-Rectangle-2" style="fill:url(#_Linear1);"/><path d="M382.417,209.419C382.417,203.899 377.936,199.419 372.417,199.419L32.814,199.419C27.295,199.419 22.814,203.899 22.814,209.419L22.814,306.442C22.814,311.961 27.295,316.442 32.814,316.442L372.417,316.442C377.936,316.442 382.417,311.961 382.417,306.442L382.417,209.419Z" id="Rounded-Rectangle-1" style="fill:url(#_Linear2);"/><g transform="matrix(10.2181,0,0,10.2181,-455.22,-1635.15)"><path d="M52.908,187.396C52.908,186.868 52.464,186.424 51.936,186.424C51.408,186.424 50.964,186.868 50.964,187.396C50.964,187.924 51.408,188.368 51.936,188.368C52.464,188.368 52.908,187.924 52.908,187.396Z" style="fill:white;fill-rule:nonzero;"/><path d="M59.364,187.312C59.364,186.916 59.004,186.652 58.632,186.652C58.488,186.652 58.356,186.688 58.224,186.772C57.96,186.94 57.672,187.024 57.36,187.024C56.436,187.024 55.788,186.34 55.788,185.332C55.788,184.324 56.436,183.652 57.36,183.652C57.66,183.652 57.96,183.736 58.212,183.892C58.344,183.976 58.488,184.012 58.632,184.012C58.968,184.012 59.352,183.772 59.352,183.364C59.352,183.268 59.328,183.172 59.28,183.088C59.028,182.62 58.188,182.296 57.288,182.296C55.5,182.296 54.216,183.556 54.216,185.332C54.216,187.12 55.5,188.38 57.288,188.38C58.104,188.38 58.704,188.14 59.124,187.804C59.28,187.684 59.364,187.492 59.364,187.312Z" style="fill:white;fill-rule:nonzero;"/><path d="M66.696,185.332C66.696,183.688 65.544,182.296 63.624,182.296C61.716,182.296 60.564,183.688 60.564,185.332C60.564,186.988 61.716,188.38 63.624,188.38C65.544,188.38 66.696,186.988 66.696,185.332ZM65.112,185.332C65.112,186.244 64.572,187.024 63.624,187.024C62.676,187.024 62.148,186.244 62.148,185.332C62.148,184.432 62.676,183.652 63.624,183.652C64.572,183.652 65.112,184.432 65.112,185.332Z" style="fill:white;fill-rule:nonzero;"/><path d="M76.908,187.552L76.908,184.048C76.908,182.86 76.272,182.296 75.204,182.296C74.316,182.296 73.548,182.824 73.212,183.352C72.996,182.692 72.456,182.296 71.604,182.296C70.716,182.296 69.948,182.848 69.708,183.196L69.708,183.112C69.708,182.704 69.372,182.368 68.964,182.368C68.52,182.368 68.184,182.704 68.184,183.112L68.184,187.552C68.184,187.972 68.52,188.308 68.94,188.308C69.372,188.308 69.708,187.972 69.708,187.552L69.708,184.336C69.936,184.012 70.38,183.652 70.908,183.652C71.532,183.652 71.772,184.036 71.772,184.576L71.772,187.552C71.772,187.972 72.108,188.308 72.528,188.308C72.972,188.308 73.308,187.972 73.308,187.552L73.308,184.324C73.524,184.012 73.968,183.652 74.508,183.652C75.132,183.652 75.372,184.036 75.372,184.576L75.372,187.552C75.372,187.972 75.708,188.308 76.128,188.308C76.572,188.308 76.908,187.972 76.908,187.552Z" style="fill:white;fill-rule:nonzero;"/></g><path d="M172.395,204.164C173.844,204.577 174.074,206.958 172.119,207.139C128.523,207.139 84.926,206.837 41.331,207.14C35.63,207.243 30.567,212.223 30.53,218.092L30.53,232.39C30.381,233.991 27.704,234.265 27.53,232.39C27.53,225.761 26.498,218.426 28.376,213.292C30.32,207.981 35.675,204.179 41.467,204.139L172.119,204.139C172.211,204.147 172.303,204.156 172.395,204.164Z" style="fill:white;fill-opacity:0.384314;fill-rule:nonzero;"/><path d="M29.111,238.997C29.859,239.058 30.466,239.661 30.528,240.414C30.629,244.174 30.53,247.937 30.53,251.699C30.489,253.216 27.698,253.82 27.532,251.78C27.43,248.02 27.53,244.257 27.53,240.495C27.553,239.649 28.083,238.969 29.111,238.997Z" style="fill:white;fill-opacity:0.384314;fill-rule:nonzero;"/><path d="M376.554,282.206C377.312,282.3 377.898,282.936 377.93,283.7C377.93,292.203 379.472,301.698 374.308,307.382C371.681,310.273 367.797,312.248 363.872,311.948C363.749,311.938 363.626,311.913 363.509,311.874C363.352,311.821 363.204,311.742 363.073,311.641C362.022,310.834 362.534,309.003 364.411,308.944C369.993,308.698 374.893,303.86 374.93,297.999L374.93,283.7C374.965,282.854 375.675,282.169 376.554,282.206Z" style="fill:rgb(0,76,174);fill-opacity:0.294118;fill-rule:nonzero;"/><path d="M376.611,216.843C377.653,217.034 377.881,217.518 377.93,218.332L377.93,275.596C377.834,277.188 375.061,277.762 374.93,275.596L374.93,218.332C374.982,217.469 375.669,216.786 376.611,216.843Z" style="fill:rgb(0,76,174);fill-opacity:0.294118;fill-rule:nonzero;"/><path d="M190.728,103.237C169.985,114.551 130.546,134.318 118.227,128.345C99.508,103.795 106.294,42.296 128.983,26.063C144.873,19.614 178.271,47.263 195.298,62.817L194.207,62.817C188.688,62.817 184.207,67.298 184.207,72.817L184.207,93.859C184.207,98.156 186.922,101.823 190.728,103.237ZM215.31,62.817C231.663,47.509 264.295,19.821 280.193,26.279C302.756,42.435 311.174,103.25 292.558,127.683C280.256,133.652 240.751,113.801 220.188,102.569C223.224,100.852 225.275,97.593 225.275,93.859L225.275,72.817C225.275,67.31 220.813,62.836 215.31,62.817Z" id="Shape-1-copy-2" style="fill:url(#_Linear3);"/><path d="M205.516,72.37C205.516,72.37 258.472,17.456 280.193,26.279C302.756,42.435 311.174,103.25 292.558,127.683C275.665,135.88 207.478,95.387 207.478,95.387" style="fill:none;"/><path d="M205.737,72.749C205.737,72.749 150.823,17.199 128.983,26.063C106.294,42.296 99.508,103.795 118.227,128.345C135.214,136.581 203.764,95.876 203.764,95.876" style="fill:none;"/><path d="M218.774,115.579C226.806,119.966 238.092,125.834 249.145,130.58C250.747,152.603 286.56,183.954 286.56,183.954C286.56,183.954 270.476,196.506 252.725,194.796C228.472,183.425 213.966,149.311 207.404,129.654C200.831,149.295 186.329,183.303 162.098,194.646C144.347,196.353 128.263,183.822 128.263,183.822C128.263,183.822 164.989,151.723 165.723,129.703L165.726,129.629C175.606,125.21 185.387,120.113 192.614,116.172L192.65,116.186C193.602,116.534 194.63,116.725 195.702,116.725L214.411,116.725C215.996,116.725 217.485,116.309 218.774,115.579ZM192.395,116.087L192.405,116.091L192.4,116.09L192.395,116.087ZM192.185,116L192.198,116.005L192.19,116.002L192.185,116ZM192.119,115.971L192.121,115.972L192.119,115.971ZM191.98,115.908L191.991,115.913L191.983,115.909L191.98,115.908ZM191.903,115.872L191.92,115.88L191.914,115.877L191.903,115.872ZM191.699,115.772L191.721,115.783L191.71,115.778L191.699,115.772ZM191.5,115.668L191.525,115.681L191.509,115.673L191.5,115.668ZM191.425,115.627L191.448,115.64L191.443,115.637L191.425,115.627ZM191.306,115.56L191.331,115.575L191.312,115.563L191.306,115.56ZM191.228,115.515L191.257,115.532L191.246,115.526L191.228,115.515ZM218.962,115.47L218.96,115.471L218.965,115.468L218.962,115.47ZM191.115,115.448L191.139,115.462L191.117,115.449L191.115,115.448ZM191.037,115.4L191.069,115.42L191.053,115.41L191.037,115.4ZM190.958,115.351L190.992,115.372L190.989,115.37L190.958,115.351ZM219.147,115.356L219.143,115.359L219.153,115.352L219.147,115.356ZM190.851,115.282L190.884,115.303L190.862,115.289L190.851,115.282ZM190.773,115.23L190.808,115.253L190.8,115.248L190.773,115.23ZM219.329,115.238L219.323,115.242L219.336,115.233L219.329,115.238ZM190.668,115.159L190.705,115.185L190.675,115.164L190.668,115.159ZM190.592,115.106L190.627,115.131L190.614,115.121L190.592,115.106ZM219.508,115.115L219.5,115.121L219.516,115.11L219.508,115.115ZM190.489,115.032L190.553,115.078C190.531,115.063 190.51,115.047 190.489,115.032ZM190.414,114.977L190.451,115.004L190.431,114.99L190.414,114.977ZM219.684,114.988L219.673,114.996L219.693,114.982L219.684,114.988ZM190.328,114.913L190.376,114.949L190.371,114.945L190.328,114.913ZM219.742,114.945L219.747,114.942L219.742,114.945ZM190.24,114.844L190.279,114.875L190.252,114.854L190.24,114.844ZM219.857,114.857L219.844,114.868L219.865,114.851L219.857,114.857ZM190.163,114.784L190.204,114.816L190.193,114.807L190.163,114.784ZM219.914,114.813L219.911,114.815L219.929,114.8L219.914,114.813ZM190.069,114.707L190.115,114.745L190.076,114.713L190.069,114.707ZM220.026,114.722L220.01,114.735L220.034,114.716L220.026,114.722ZM220.082,114.676L220.077,114.68L220.102,114.66L220.082,114.676ZM189.996,114.647L190.035,114.679L190.019,114.666L189.996,114.647ZM189.902,114.567L189.964,114.62C189.943,114.602 189.922,114.584 189.902,114.567ZM220.192,114.583L220.173,114.599L220.2,114.576L220.192,114.583ZM220.247,114.536L220.24,114.542L220.268,114.517L220.247,114.536ZM189.832,114.505L189.87,114.539L189.848,114.52L189.832,114.505ZM189.75,114.432L189.799,114.477L189.792,114.47L189.75,114.432ZM220.354,114.44L220.332,114.46L220.362,114.434L220.354,114.44ZM220.408,114.392L220.4,114.399L220.43,114.371L220.408,114.392ZM189.67,114.359L189.711,114.397L189.681,114.37L189.67,114.359ZM189.598,114.292L189.639,114.33L189.627,114.319L189.598,114.292ZM220.513,114.294L220.487,114.318L220.52,114.287L220.513,114.294ZM189.512,114.209L189.564,114.259L189.518,114.215L189.512,114.209ZM220.565,114.244L220.555,114.253L220.588,114.222L220.565,114.244ZM189.444,114.142L189.482,114.18L189.465,114.163L189.444,114.142ZM220.669,114.143L220.637,114.174L220.675,114.137L220.669,114.143ZM189.357,114.055L189.415,114.114C189.396,114.094 189.377,114.074 189.357,114.055ZM220.72,114.092L220.708,114.104L220.741,114.07L220.72,114.092ZM220.82,113.989L220.781,114.029L220.826,113.983L220.82,113.989ZM189.292,113.988L189.33,114.026L189.307,114.003L189.292,113.988ZM189.219,113.91L189.263,113.957L189.256,113.949L189.219,113.91ZM220.87,113.937L220.856,113.951L220.89,113.915L220.87,113.937ZM220.973,113.826C220.955,113.845 220.937,113.865 220.919,113.884L220.973,113.826ZM189.144,113.829L189.183,113.872L189.154,113.84L189.144,113.829ZM189.079,113.757L189.115,113.798L189.103,113.784L189.079,113.757ZM221.016,113.777L221.001,113.795L221.036,113.756L221.016,113.777ZM188.999,113.666L189.052,113.727L189.004,113.672L188.999,113.666ZM221.116,113.665C221.098,113.685 221.08,113.706 221.062,113.726L221.116,113.665ZM221.159,113.615L221.142,113.635L221.177,113.593L221.159,113.615ZM188.937,113.595L188.971,113.635L188.955,113.616L188.937,113.595ZM221.255,113.501C221.237,113.522 221.22,113.543 221.202,113.564L221.255,113.501ZM188.858,113.5L188.91,113.563C188.893,113.542 188.875,113.521 188.858,113.5ZM221.298,113.449L221.278,113.472L221.315,113.428L221.298,113.449ZM188.799,113.428L188.832,113.469L188.811,113.443L188.799,113.428ZM221.39,113.333C221.373,113.355 221.356,113.377 221.338,113.399L221.39,113.333ZM188.736,113.349L188.772,113.394L188.764,113.385L188.736,113.349ZM221.433,113.279L221.411,113.307L221.448,113.259L221.433,113.279ZM188.664,113.258L188.698,113.301L188.672,113.267L188.664,113.258ZM221.521,113.163C221.504,113.185 221.487,113.208 221.47,113.23L221.521,113.163ZM188.607,113.182L188.637,113.222L188.626,113.208L188.607,113.182ZM188.533,113.083L188.58,113.147L188.536,113.088L188.533,113.083ZM221.563,113.106L221.54,113.138L221.577,113.087L221.563,113.106ZM221.648,112.989C221.632,113.012 221.615,113.035 221.598,113.059L221.648,112.989ZM188.479,113.008L188.506,113.046L188.492,113.027L188.479,113.008ZM188.414,112.917L188.452,112.97L188.449,112.966L188.414,112.917ZM221.69,112.93L221.664,112.967L221.703,112.912L221.69,112.93ZM221.731,112.871L221.722,112.884L221.769,112.815L221.731,112.871ZM188.354,112.83L188.38,112.868L188.363,112.843L188.354,112.83ZM221.812,112.751L221.784,112.794L221.824,112.734L221.812,112.751ZM188.302,112.751L188.327,112.789L188.321,112.781L188.302,112.751ZM221.852,112.691L221.842,112.706L221.885,112.639L221.852,112.691ZM188.234,112.648L188.258,112.686L188.239,112.655L188.234,112.648ZM221.93,112.569L221.898,112.619L221.94,112.552L221.93,112.569ZM188.185,112.571L188.207,112.605L188.198,112.592L188.185,112.571ZM221.968,112.507L221.957,112.525L221.998,112.46L221.968,112.507ZM188.118,112.463L188.143,112.503L188.119,112.464L188.118,112.463ZM222.044,112.384L222.008,112.443L222.053,112.368L222.044,112.384ZM188.071,112.385L188.09,112.417L188.08,112.4L188.071,112.385ZM222.081,112.321L222.068,112.342L222.106,112.277L222.081,112.321ZM188.027,112.31L188.043,112.338L188.041,112.335L188.027,112.31ZM222.161,112.181C222.146,112.207 222.131,112.234 222.116,112.26L222.161,112.181ZM187.961,112.196L187.977,112.224L187.966,112.205L187.961,112.196ZM222.188,112.132L222.175,112.155L222.211,112.09L222.188,112.132ZM187.919,112.12L187.933,112.146L187.929,112.139L187.919,112.12ZM222.264,111.991C222.25,112.018 222.236,112.045 222.221,112.071L222.264,111.991ZM187.856,112.003L187.866,112.023L187.857,112.006L187.856,112.003ZM222.291,111.94L222.277,111.966L222.312,111.901L222.291,111.94ZM187.815,111.925L187.827,111.95L187.822,111.94L187.815,111.925ZM222.363,111.799C222.35,111.826 222.336,111.853 222.322,111.88L222.363,111.799ZM222.39,111.745L222.375,111.775L222.408,111.708L222.39,111.745ZM187.716,111.729L187.726,111.749L187.72,111.737L187.716,111.729ZM222.458,111.604C222.445,111.631 222.431,111.659 222.418,111.687L222.458,111.604ZM187.686,111.667L187.687,111.67L187.687,111.669L187.686,111.667ZM222.484,111.547L222.468,111.581L222.499,111.513L222.484,111.547ZM187.621,111.529L187.627,111.541L187.623,111.532L187.621,111.529ZM222.547,111.406C222.535,111.434 222.522,111.462 222.51,111.49L222.547,111.406ZM187.589,111.456L187.593,111.466L187.592,111.463L187.589,111.456ZM222.573,111.347L222.557,111.385L222.587,111.315L222.573,111.347ZM222.632,111.205C222.621,111.234 222.609,111.263 222.596,111.291L222.632,111.205ZM187.5,111.249L187.503,111.258L187.501,111.254L187.5,111.249ZM222.657,111.144L222.64,111.186L222.669,111.114L222.657,111.144ZM222.712,111.003C222.701,111.032 222.69,111.061 222.679,111.09L222.712,111.003ZM187.416,111.042L187.417,111.044L187.416,111.042ZM222.736,110.939L222.719,110.986L222.747,110.911L222.736,110.939ZM222.788,110.797C222.777,110.827 222.767,110.857 222.756,110.886L222.788,110.797ZM222.811,110.731L222.792,110.784L222.82,110.705L222.811,110.731ZM222.858,110.59C222.848,110.62 222.838,110.65 222.828,110.68L222.858,110.59ZM222.88,110.521L222.861,110.581L222.888,110.497L222.88,110.521ZM222.902,110.451L222.895,110.472L222.923,110.38L222.902,110.451ZM222.944,110.309L222.924,110.378L222.951,110.287L222.944,110.309ZM222.965,110.238L222.958,110.262L222.982,110.175L222.965,110.238ZM223.009,110.074C223,110.105 222.992,110.137 222.984,110.168L223.009,110.074ZM223.022,110.022L223.015,110.049L223.036,109.965L223.022,110.022ZM223.061,109.86C223.054,109.891 223.046,109.922 223.039,109.954L223.061,109.86ZM223.074,109.805L223.067,109.835L223.085,109.753L223.074,109.805ZM223.109,109.643C223.102,109.675 223.096,109.706 223.089,109.738L223.109,109.643ZM223.12,109.586L223.114,109.619L223.13,109.538L223.12,109.586ZM223.151,109.424C223.145,109.456 223.139,109.488 223.133,109.52L223.151,109.424ZM223.162,109.364L223.155,109.401L223.169,109.32L223.162,109.364ZM223.188,109.204C223.183,109.236 223.178,109.268 223.172,109.3L223.188,109.204ZM223.197,109.141L223.191,109.182L223.203,109.1L223.197,109.141ZM223.219,108.981C223.215,109.014 223.211,109.046 223.206,109.078L223.219,108.981ZM223.227,108.916L223.222,108.961L223.232,108.878L223.227,108.916ZM223.245,108.757C223.242,108.79 223.238,108.823 223.234,108.855L223.245,108.757ZM223.252,108.69L223.247,108.739L223.255,108.655L223.252,108.69ZM223.265,108.531C223.263,108.564 223.26,108.597 223.257,108.63L223.265,108.531ZM223.27,108.461L223.266,108.516L223.272,108.429L223.27,108.461ZM223.28,108.304C223.278,108.337 223.276,108.371 223.274,108.404L223.28,108.304ZM223.283,108.231L223.28,108.292L223.284,108.202L223.283,108.231ZM223.288,108.075C223.287,108.109 223.286,108.142 223.285,108.176L223.288,108.075ZM223.29,108L223.288,108.068L223.29,107.973L223.29,108ZM223.291,107.947L223.291,107.845L223.291,107.947Z" id="Shape-1-copy-3" style="fill:rgb(38,132,251);fill-opacity:0.231373;"/><path d="M203.182,115.291C203.182,115.291 217.912,178.474 252.725,194.796C270.476,196.506 286.56,183.954 286.56,183.954C286.56,183.954 249.833,151.803 249.1,129.746C248.367,107.69 203.182,103.245 203.182,103.245" style="fill:none;"/><path d="M211.641,115.271C211.641,115.271 196.911,178.35 162.098,194.646C144.347,196.353 128.263,183.822 128.263,183.822C128.263,183.822 164.989,151.723 165.723,129.703C166.456,107.683 211.641,103.245 211.641,103.245" style="fill:none;"/><path d="M220.188,102.569C229.233,107.509 241.942,114.117 254.389,119.462C256.193,144.262 296.522,179.567 296.522,179.567C296.522,179.567 278.41,193.701 258.421,191.776C231.109,178.971 214.774,140.554 207.385,118.419C199.982,140.537 183.651,178.834 156.364,191.607C136.375,193.529 118.263,179.418 118.263,179.418C118.263,179.418 159.621,143.271 160.447,118.474L160.45,118.391C171.576,113.415 182.591,107.675 190.728,103.237L190.77,103.252C191.842,103.645 192.999,103.859 194.207,103.859L215.275,103.859C217.06,103.859 218.737,103.391 220.188,102.569ZM190.483,103.142L190.493,103.146L190.489,103.144L190.483,103.142ZM190.246,103.043L190.26,103.049L190.252,103.045L190.246,103.043ZM190.172,103.01L190.174,103.011L190.173,103.011L190.172,103.01ZM190.015,102.939L190.028,102.945L190.018,102.941L190.015,102.939ZM189.928,102.899L189.947,102.908L189.941,102.905L189.928,102.899ZM189.698,102.786L189.723,102.799L189.711,102.793L189.698,102.786ZM189.475,102.669L189.503,102.684L189.485,102.675L189.475,102.669ZM189.39,102.623L189.416,102.637L189.41,102.634L189.39,102.623ZM189.256,102.548L189.285,102.564L189.262,102.552L189.256,102.548ZM189.168,102.497L189.2,102.516L189.189,102.509L189.168,102.497ZM220.4,102.446L220.397,102.447L220.404,102.444L220.4,102.446ZM189.041,102.422L189.068,102.438L189.043,102.423L189.041,102.422ZM188.954,102.368L188.989,102.39L188.971,102.379L188.954,102.368ZM188.865,102.312L188.902,102.336L188.899,102.334L188.865,102.312ZM220.608,102.318L220.604,102.321L220.614,102.314L220.608,102.318ZM188.744,102.234L188.781,102.259L188.756,102.243L188.744,102.234ZM188.656,102.176L188.695,102.202L188.686,102.196L188.656,102.176ZM220.813,102.185L220.806,102.189L220.821,102.179L220.813,102.185ZM188.538,102.096L188.58,102.125L188.546,102.102L188.538,102.096ZM188.452,102.036L188.492,102.064L188.476,102.053L188.452,102.036ZM221.015,102.047L221.005,102.053L221.024,102.04L221.015,102.047ZM188.336,101.953L188.408,102.005C188.384,101.988 188.36,101.97 188.336,101.953ZM188.252,101.891L188.293,101.922L188.271,101.905L188.252,101.891ZM221.213,101.904L221.201,101.913L221.222,101.897L221.213,101.904ZM188.155,101.819L188.209,101.86L188.203,101.855L188.155,101.819ZM221.278,101.855L221.278,101.856L221.283,101.851L221.278,101.855ZM188.056,101.742L188.099,101.776L188.069,101.752L188.056,101.742ZM221.407,101.756L221.392,101.768L221.417,101.749L221.407,101.756ZM187.969,101.674L188.015,101.71L188.003,101.7L187.969,101.674ZM221.471,101.706L221.469,101.708L221.489,101.692L221.471,101.706ZM187.863,101.588L187.915,101.63L187.872,101.594L187.863,101.588ZM221.598,101.604L221.58,101.619L221.607,101.597L221.598,101.604ZM221.661,101.553L221.656,101.557L221.683,101.534L221.661,101.553ZM187.781,101.519L187.825,101.556L187.807,101.541L187.781,101.519ZM187.675,101.429L187.745,101.489C187.721,101.469 187.698,101.449 187.675,101.429ZM221.785,101.448L221.764,101.466L221.794,101.44L221.785,101.448ZM221.846,101.395L221.839,101.401L221.871,101.373L221.846,101.395ZM187.596,101.36L187.639,101.398L187.614,101.376L187.596,101.36ZM187.504,101.277L187.559,101.328L187.551,101.32L187.504,101.277ZM221.968,101.287L221.943,101.309L221.976,101.279L221.968,101.287ZM222.028,101.232L222.019,101.241L222.053,101.209L222.028,101.232ZM187.414,101.195L187.46,101.238L187.427,101.207L187.414,101.195ZM187.333,101.119L187.379,101.162L187.365,101.15L187.333,101.119ZM222.147,101.122L222.117,101.149L222.154,101.114L222.147,101.122ZM187.236,101.026L187.294,101.082L187.243,101.033L187.236,101.026ZM222.205,101.066L222.194,101.076L222.23,101.041L222.205,101.066ZM187.159,100.951L187.202,100.993L187.183,100.974L187.159,100.951ZM222.321,100.952L222.286,100.987L222.328,100.945L222.321,100.952ZM187.062,100.853L187.127,100.919C187.105,100.897 187.083,100.875 187.062,100.853ZM222.379,100.895L222.365,100.908L222.403,100.87L222.379,100.895ZM222.492,100.778L222.448,100.824L222.498,100.772L222.492,100.778ZM186.988,100.777L187.031,100.821L187.005,100.795L186.988,100.777ZM186.906,100.69L186.956,100.743L186.947,100.734L186.906,100.69ZM222.548,100.719L222.533,100.736L222.571,100.695L222.548,100.719ZM222.664,100.595C222.644,100.617 222.623,100.639 222.603,100.661L222.664,100.595ZM186.821,100.598L186.866,100.647L186.832,100.61L186.821,100.598ZM186.748,100.517L186.789,100.563L186.776,100.548L186.748,100.517ZM222.713,100.54L222.695,100.56L222.735,100.516L222.713,100.54ZM186.658,100.415L186.718,100.483L186.664,100.422L186.658,100.415ZM222.825,100.414C222.805,100.437 222.785,100.46 222.765,100.482L222.825,100.414ZM222.874,100.357L222.854,100.38L222.894,100.333L222.874,100.357ZM186.589,100.335L186.627,100.379L186.609,100.358L186.589,100.335ZM222.982,100.229C222.962,100.253 222.942,100.276 222.922,100.3L222.982,100.229ZM186.499,100.228L186.558,100.299C186.539,100.275 186.519,100.252 186.499,100.228ZM223.03,100.17L223.008,100.197L223.049,100.147L223.03,100.17ZM186.433,100.147L186.47,100.193L186.447,100.164L186.433,100.147ZM223.134,100.04C223.115,100.065 223.095,100.089 223.076,100.114L223.134,100.04ZM186.362,100.058L186.402,100.109L186.394,100.098L186.362,100.058ZM223.182,99.979L223.158,100.01L223.199,99.956L223.182,99.979ZM186.281,99.955L186.32,100.004L186.29,99.966L186.281,99.955ZM223.282,99.848C223.263,99.873 223.244,99.899 223.224,99.924L223.282,99.848ZM186.216,99.87L186.25,99.915L186.238,99.899L186.216,99.87ZM186.134,99.759L186.187,99.83L186.137,99.763L186.134,99.759ZM223.329,99.785L223.302,99.82L223.345,99.763L223.329,99.785ZM223.425,99.652C223.406,99.678 223.387,99.705 223.368,99.731L223.425,99.652ZM186.072,99.674L186.103,99.717L186.088,99.695L186.072,99.674ZM186,99.571L186.042,99.631L186.039,99.626L186,99.571ZM223.471,99.586L223.442,99.628L223.486,99.565L223.471,99.586ZM223.518,99.52L223.508,99.534L223.561,99.456L223.518,99.52ZM185.932,99.473L185.961,99.516L185.942,99.488L185.932,99.473ZM223.609,99.385L223.577,99.432L223.622,99.365L223.609,99.385ZM185.873,99.385L185.902,99.428L185.895,99.418L185.873,99.385ZM223.654,99.317L223.643,99.334L223.691,99.259L223.654,99.317ZM185.797,99.268L185.824,99.311L185.802,99.276L185.797,99.268ZM223.742,99.179L223.706,99.235L223.754,99.161L223.742,99.179ZM185.741,99.181L185.766,99.22L185.756,99.205L185.741,99.181ZM223.785,99.11L223.773,99.13L223.818,99.057L223.785,99.11ZM185.666,99.06L185.694,99.105L185.667,99.061L185.666,99.06ZM223.87,98.971L223.83,99.037L223.88,98.953L223.87,98.971ZM185.613,98.972L185.635,99.008L185.623,98.989L185.613,98.972ZM223.912,98.9L223.898,98.923L223.94,98.85L223.912,98.9ZM185.563,98.888L185.582,98.92L185.58,98.916L185.563,98.888ZM224.002,98.743C223.985,98.772 223.968,98.802 223.952,98.831L224.002,98.743ZM185.489,98.759L185.508,98.791L185.495,98.769L185.489,98.759ZM224.033,98.687L224.018,98.714L224.058,98.64L224.033,98.687ZM185.442,98.673L185.458,98.703L185.454,98.695L185.442,98.673ZM224.118,98.529C224.102,98.559 224.086,98.589 224.07,98.619L224.118,98.529ZM185.371,98.542L185.383,98.565L185.372,98.546L185.371,98.542ZM224.149,98.471L224.133,98.501L224.172,98.427L224.149,98.471ZM185.325,98.455L185.339,98.482L185.333,98.471L185.325,98.455ZM224.23,98.312C224.214,98.343 224.199,98.374 224.183,98.404L224.23,98.312ZM224.26,98.251L224.243,98.285L224.28,98.21L224.26,98.251ZM185.213,98.233L185.224,98.256L185.218,98.243L185.213,98.233ZM224.336,98.092C224.321,98.124 224.307,98.155 224.292,98.186L224.336,98.092ZM185.18,98.164L185.181,98.167L185.181,98.166L185.18,98.164ZM224.366,98.029L224.348,98.067L224.383,97.99L224.366,98.029ZM185.107,98.008L185.113,98.021L185.109,98.012L185.107,98.008ZM224.437,97.87C224.423,97.901 224.409,97.933 224.395,97.965L224.437,97.87ZM185.07,97.926L185.075,97.937L185.073,97.934L185.07,97.926ZM224.466,97.803L224.448,97.846L224.481,97.767L224.466,97.803ZM224.533,97.644C224.52,97.676 224.506,97.709 224.493,97.741L224.533,97.644ZM184.97,97.693L184.974,97.703L184.972,97.699L184.97,97.693ZM224.561,97.575L224.542,97.622L224.574,97.541L224.561,97.575ZM224.623,97.415C224.611,97.448 224.598,97.481 224.585,97.514L224.623,97.415ZM184.876,97.46L184.877,97.462L184.876,97.46ZM224.65,97.344L224.63,97.397L224.662,97.312L224.65,97.344ZM224.708,97.184C224.696,97.218 224.684,97.251 224.672,97.285L224.708,97.184ZM224.734,97.11L224.713,97.169L224.744,97.08L224.734,97.11ZM224.787,96.951C224.776,96.985 224.765,97.019 224.753,97.053L224.787,96.951ZM224.812,96.873L224.79,96.941L224.82,96.846L224.812,96.873ZM224.837,96.794L224.829,96.818L224.861,96.715L224.837,96.794ZM224.884,96.634L224.861,96.712L224.891,96.609L224.884,96.634ZM224.907,96.554L224.899,96.581L224.926,96.483L224.907,96.554ZM224.957,96.37C224.947,96.405 224.938,96.44 224.929,96.475L224.957,96.37ZM224.971,96.312L224.964,96.342L224.987,96.248L224.971,96.312ZM225.016,96.128C225.008,96.164 224.999,96.199 224.991,96.234L225.016,96.128ZM225.03,96.067L225.022,96.101L225.043,96.008L225.03,96.067ZM225.069,95.884C225.062,95.92 225.054,95.956 225.047,95.991L225.069,95.884ZM225.082,95.82L225.075,95.858L225.093,95.766L225.082,95.82ZM225.117,95.638C225.11,95.674 225.104,95.71 225.097,95.746L225.117,95.638ZM225.129,95.571L225.121,95.612L225.137,95.521L225.129,95.571ZM225.158,95.39C225.153,95.426 225.147,95.462 225.141,95.498L225.158,95.39ZM225.169,95.319L225.162,95.365L225.175,95.273L225.169,95.319ZM225.194,95.139C225.189,95.176 225.184,95.212 225.179,95.249L225.194,95.139ZM225.203,95.066L225.196,95.116L225.208,95.024L225.203,95.066ZM225.223,94.887C225.219,94.924 225.215,94.961 225.211,94.997L225.223,94.887ZM225.23,94.811L225.225,94.866L225.234,94.772L225.23,94.811ZM225.245,94.633C225.243,94.67 225.239,94.707 225.236,94.744L225.245,94.633ZM225.251,94.554L225.247,94.615L225.253,94.517L225.251,94.554ZM225.262,94.377C225.26,94.414 225.258,94.452 225.255,94.489L225.262,94.377ZM225.266,94.295L225.262,94.363L225.267,94.262L225.266,94.295ZM225.272,94.119C225.271,94.157 225.269,94.195 225.268,94.232L225.272,94.119ZM225.273,94.034L225.272,94.111L225.274,94.004L225.273,94.034ZM225.274,93.974L225.275,93.859L225.275,93.947L225.274,93.974Z" id="Shape-1-copy-31" style="fill:url(#_Linear4);"/><path d="M202.63,102.245C202.63,102.245 219.218,173.395 258.421,191.776C278.41,193.701 296.522,179.567 296.522,179.567C296.522,179.567 255.164,143.361 254.338,118.523C253.513,93.685 202.63,88.679 202.63,88.679" style="fill:none;"/><path d="M212.155,102.222C212.155,102.222 195.567,173.256 156.364,191.607C136.375,193.529 118.263,179.418 118.263,179.418C118.263,179.418 159.621,143.271 160.447,118.474C161.272,93.677 212.155,88.679 212.155,88.679" style="fill:none;"/><path d="M225.275,72.817C225.275,67.298 220.794,62.817 215.275,62.817L194.207,62.817C188.688,62.817 184.207,67.298 184.207,72.817L184.207,93.859C184.207,99.379 188.688,103.859 194.207,103.859L215.275,103.859C220.794,103.859 225.275,99.379 225.275,93.859L225.275,72.817Z" id="Rounded-Rectangle-3" style="fill:url(#_Linear5);"/><path d="M184.577,61.909C184.577,61.909 135.059,32.161 129.386,35.308C123.713,38.455 120.713,52.564 121.148,57.032C121.583,61.5 176.719,71.401 180.213,69.76C183.706,68.119 184.577,61.909 184.577,61.909Z" id="Shape-4" style="fill:url(#_Linear6);"/><path d="M225.615,61.939C225.615,61.939 275.134,32.158 280.807,35.308C286.479,38.459 289.479,52.584 289.045,57.056C288.61,61.529 233.474,71.442 229.98,69.799C226.486,68.156 225.615,61.939 225.615,61.939Z" id="Shape-4-copy" style="fill:url(#_Linear7);"/></g><defs><linearGradient gradientTransform="matrix(1.13983e-14,186.149,-186.149,1.13983e-14,225.31,197.479)" gradientUnits="userSpaceOnUse" id="_Linear1" x1="0" x2="1" y1="0" y2="0"><stop offset="0" style="stop-color:rgb(204,230,255);stop-opacity:1"/><stop offset="0.36" style="stop-color:rgb(38,132,251);stop-opacity:1"/><stop offset="1" style="stop-color:rgb(208,228,252);stop-opacity:1"/></linearGradient><linearGradient gradientTransform="matrix(1.09397e-14,178.659,-178.659,1.09397e-14,313.535,128.97)" gradientUnits="userSpaceOnUse" id="_Linear2" x1="0" x2="1" y1="0" y2="0"><stop offset="0" style="stop-color:rgb(122,213,254);stop-opacity:1"/><stop offset="1" style="stop-color:rgb(38,132,251);stop-opacity:1"/></linearGradient><linearGradient gradientTransform="matrix(6.5338e-15,-106.705,106.705,6.5338e-15,273.589,125.94)" gradientUnits="userSpaceOnUse" id="_Linear3" x1="0" x2="1" y1="0" y2="0"><stop offset="0" style="stop-color:rgb(18,159,0);stop-opacity:1"/><stop offset="0.5" style="stop-color:rgb(62,200,39);stop-opacity:1"/><stop offset="1" style="stop-color:rgb(121,223,104);stop-opacity:1"/></linearGradient><linearGradient gradientTransform="matrix(5.9895e-15,97.8159,-97.8159,5.9895e-15,259.248,107.746)" gradientUnits="userSpaceOnUse" id="_Linear4" x1="0" x2="1" y1="0" y2="0"><stop offset="0" style="stop-color:rgb(26,153,0);stop-opacity:1"/><stop offset="0.5" style="stop-color:rgb(85,208,65);stop-opacity:1"/><stop offset="1" style="stop-color:rgb(121,223,104);stop-opacity:1"/></linearGradient><linearGradient gradientTransform="matrix(1.69188e-15,-27.6305,27.6305,1.69188e-15,200.12,92.663)" gradientUnits="userSpaceOnUse" id="_Linear5" x1="0" x2="1" y1="0" y2="0"><stop offset="0" style="stop-color:rgb(11,188,0);stop-opacity:1"/><stop offset="1" style="stop-color:rgb(121,223,104);stop-opacity:1"/></linearGradient><linearGradient gradientTransform="matrix(4.48919,52.9993,-52.9993,4.48919,262.03,26.3149)" gradientUnits="userSpaceOnUse" id="_Linear6" x1="0" x2="1" y1="0" y2="0"><stop offset="0" style="stop-color:white;stop-opacity:0.211765"/><stop offset="1" style="stop-color:white;stop-opacity:0"/></linearGradient><linearGradient gradientTransform="matrix(5.99435,56.949,-56.949,5.99435,260.525,22.3652)" gradientUnits="userSpaceOnUse" id="_Linear7" x1="0" x2="1" y1="0" y2="0"><stop offset="0" style="stop-color:white;stop-opacity:0.211765"/><stop offset="1" style="stop-color:white;stop-opacity:0"/></linearGradient></defs></svg>