<?xml version="1.0" ?><svg data-name="Layer 1" id="Layer_1" viewBox="0 0 128 128" xmlns="http://www.w3.org/2000/svg"><defs><style>.cls-1{fill:#b6e5ff;}.cls-2{fill:#eefaff;}.cls-11,.cls-14,.cls-15,.cls-16,.cls-19,.cls-20,.cls-21,.cls-25,.cls-27,.cls-28,.cls-3,.cls-4,.cls-5,.cls-6,.cls-7,.cls-8,.cls-9{fill:none;}.cls-3{stroke:#b6e5ff;}.cls-11,.cls-14,.cls-16,.cls-28,.cls-3,.cls-4,.cls-5,.cls-6,.cls-7,.cls-8,.cls-9{stroke-miterlimit:10;}.cls-3,.cls-4{stroke-width:2px;}.cls-4{stroke:#fff;stroke-linecap:square;}.cls-5{stroke:#bc9e80;}.cls-11,.cls-15,.cls-16,.cls-19,.cls-20,.cls-21,.cls-27,.cls-28,.cls-5,.cls-6,.cls-7,.cls-8,.cls-9{stroke-linecap:round;}.cls-11,.cls-14,.cls-15,.cls-20,.cls-25,.cls-27,.cls-28,.cls-5,.cls-6,.cls-7,.cls-8,.cls-9{stroke-width:4px;}.cls-6{stroke:#9a9c49;}.cls-7{stroke:#ce251d;}.cls-8{stroke:#f2b120;}.cls-9{stroke:#a068c1;}.cls-10{fill:#ad583a;}.cls-11{stroke:#72301e;}.cls-12{fill:#e61010;}.cls-13{fill:#ff5f63;}.cls-14{stroke:#ba1515;}.cls-15{stroke:#a5b2bf;}.cls-15,.cls-19,.cls-20,.cls-21,.cls-25,.cls-27{stroke-linejoin:round;}.cls-16{stroke:#7a5e4b;stroke-width:6px;}.cls-17{fill:#a5b2bf;}.cls-18{fill:#ededed;opacity:0.9;}.cls-19,.cls-20{stroke:#c1c1c1;}.cls-19{stroke-width:4px;}.cls-21,.cls-25,.cls-27{stroke:#171a1e;}.cls-21{stroke-width:8px;}.cls-22{fill:#2f3038;}.cls-23{fill:#5b5d68;}.cls-24{fill:#23282d;}.cls-26{fill:#7a5e4b;}.cls-28{stroke:#799293;}</style></defs><title/><circle class="cls-1" cx="64" cy="64" r="63"/><path class="cls-1" d="M46,94a9.94,9.94,0,0,0-4.29,1A16,16,0,0,0,10,98c0,.09,0,.18,0,.26A8,8,0,1,0,8,114H46a10,10,0,0,0,0-20Z"/><path class="cls-1" d="M117,18a9.94,9.94,0,0,0-4.29,1A16,16,0,0,0,81,22c0,.09,0,.18,0,.26A8,8,0,1,0,79,38h38a10,10,0,0,0,0-20Z"/><path class="cls-2" d="M117,13a9.94,9.94,0,0,0-4.29,1A16,16,0,0,0,81,17c0,.09,0,.18,0,.26A8,8,0,1,0,79,33h38a10,10,0,0,0,0-20Z"/><path class="cls-2" d="M46,89a9.94,9.94,0,0,0-4.29,1A16,16,0,0,0,10,93c0,.09,0,.18,0,.26A8,8,0,1,0,8,109H46a10,10,0,0,0,0-20Z"/><line class="cls-3" x1="113" x2="123" y1="5" y2="5"/><line class="cls-3" x1="118" x2="118" y1="10"/><path class="cls-4" d="M110.12,95.88A3,3,0,0,0,105,98h0a3,3,0,0,0-5.12-2.12A2.86,2.86,0,0,0,100,100l5,6,5-6A2.86,2.86,0,0,0,110.12,95.88Z"/><circle class="cls-4" cx="28" cy="14" r="5"/><line class="cls-5" x1="72.38" x2="3.62" y1="73.42" y2="36.58"/><line class="cls-6" x1="47.85" x2="56.35" y1="70.49" y2="54.62"/><line class="cls-7" x1="44.33" x2="52.83" y1="68.6" y2="52.73"/><line class="cls-8" x1="40.8" x2="49.3" y1="66.71" y2="50.85"/><line class="cls-7" x1="12.59" x2="21.1" y1="51.6" y2="35.73"/><line class="cls-8" x1="9.07" x2="17.57" y1="49.71" y2="33.84"/><line class="cls-9" x1="26.7" x2="35.2" y1="59.15" y2="43.29"/><rect class="cls-10" height="18" rx="2" ry="2" transform="translate(79.96 152.75) rotate(-151.82)" width="8" x="55.15" y="57.34"/><rect class="cls-11" height="18" rx="2" ry="2" transform="translate(79.96 152.75) rotate(-151.82)" width="8" x="55.15" y="57.34"/><rect class="cls-10" height="18" rx="2" ry="2" transform="translate(45.52 121.43) rotate(-151.82)" width="8" x="34" y="46"/><rect class="cls-11" height="18" rx="2" ry="2" transform="translate(45.52 121.43) rotate(-151.82)" width="8" x="34" y="46"/><rect class="cls-10" height="18" rx="2" ry="2" transform="translate(22.55 100.55) rotate(-151.82)" width="8" x="19.9" y="38.44"/><rect class="cls-11" height="18" rx="2" ry="2" transform="translate(22.55 100.55) rotate(-151.82)" width="8" x="19.9" y="38.44"/><path class="cls-12" d="M84.86,17.36S39.34,5.67,33.62,27.95l-1,3.87L78.14,43.51l45.52,11.69,1-3.87C130.38,29.05,84.86,17.36,84.86,17.36Z"/><path class="cls-13" d="M84.35,17.49l0-.27-1.51-.34-.08,0,0,0c-9-2-44.16-8.33-49.14,11.07l-1,3.87,9.72,2.5c4.44-13.75,24.95-13.61,38.55-11.88a6,6,0,0,1,5.21,6.31A66.86,66.86,0,0,1,84,40.88l-1,3.87,11.62,3,1-3.87C100.05,26.54,89.34,19.69,84.35,17.49Z"/><rect class="cls-12" height="8" rx="4" ry="4" transform="translate(13.98 -17.8) rotate(14.41)" width="98" x="28.4" y="42.42"/><path class="cls-13" d="M34.81,31.35a4,4,0,0,0-2,7.75l7.75,2a8,8,0,0,0,9.74-5.76Z"/><rect class="cls-14" height="8" rx="4" ry="4" transform="translate(13.98 -17.8) rotate(14.41)" width="98" x="28.4" y="42.42"/><line class="cls-14" x1="35.83" x2="124.94" y1="23.35" y2="46.24"/><path class="cls-15" d="M78.55,5.42A14,14,0,0,0,76.42,10l-.75,2.91c-2.95-.5-5.46-.22-8.13-.49"/><path class="cls-15" d="M102.41,21.4c-2.47-1.05-4.54-2.5-7.36-3.49L95.79,15a14,14,0,0,0,.35-5.07"/><path class="cls-16" d="M103.57,12.87s-1.72-2.51-3.38-2.93L87.6,6.71,75,3.47c-1.66-.43-4.37.94-4.37.94"/><ellipse class="cls-17" cx="64.22" cy="21.35" rx="2" ry="9" transform="translate(36.4 83.05) rotate(-84.12)"/><path class="cls-14" d="M84.86,17.36S39.34,5.67,33.62,27.95l-1,3.87L78.14,43.51l45.52,11.69,1-3.87C130.38,29.05,84.86,17.36,84.86,17.36Z"/><path class="cls-18" d="M30.44,70.91a15.35,15.35,0,0,0,3.83,14.26L56,58,67.45,32.45a12.41,12.41,0,0,0-8.41.49h-.71a12,12,0,0,0-22.78,6.58,16.43,16.43,0,0,0-5,10.46c-.19,0-.38,0-.57,0a10.5,10.5,0,1,0,0,21C30.11,70.94,30.27,70.91,30.44,70.91Z"/><path class="cls-19" d="M30.44,49.78a16.43,16.43,0,0,1,4.73-10"/><path class="cls-20" d="M58.93,33a12.54,12.54,0,0,1,9.8-.1"/><path class="cls-20" d="M40.23,62.56A10.5,10.5,0,1,1,34.3,50.88"/><path class="cls-20" d="M39,46.42A12,12,0,1,1,55.33,47"/><path class="cls-18" d="M107,59.5A14.49,14.49,0,0,0,86.68,46.22a8.47,8.47,0,0,0-10.9-5.77,12.53,12.53,0,0,0-8.1-7.94L35.38,86.22A15.47,15.47,0,0,0,50,89.32a8.5,8.5,0,0,0,16.8.77,19.48,19.48,0,0,0,33.83-18.62A14.48,14.48,0,0,0,107,59.5Z"/><path class="cls-20" d="M71.44,54.44a12.5,12.5,0,0,0,.18-19.87"/><path class="cls-20" d="M75.88,40.41a8.5,8.5,0,0,1,7.73,14.88"/><path class="cls-20" d="M87,46.08A14.5,14.5,0,1,1,92.5,74"/><path class="cls-20" d="M67,88.5a8.5,8.5,0,1,1-11.87-7.81"/><path class="cls-20" d="M100.82,71.8A19.5,19.5,0,0,1,67,90.31"/><line class="cls-15" x1="64" x2="64" y1="103" y2="124"/><line class="cls-21" x1="64" x2="64" y1="106" y2="115"/><path class="cls-22" d="M64,65H17s0,45,47,45,47-45,47-45Z"/><path class="cls-23" d="M68,101c2,0,5.17-1.64,7.58-6.82C81,81.22,81,65,81,65H69s0,16.81-2.63,29.88C66.37,94.9,66,101,68,101Z"/><path class="cls-23" d="M36.63,93.47h0C27,80.63,27,65,27,65H17s0,24.32,18.68,37.21C41.16,99,36.63,93.47,36.63,93.47Z"/><path class="cls-24" d="M64,73h46.09a47.11,47.11,0,0,0,.91-8H17a47.12,47.12,0,0,0,.91,8Z"/><path class="cls-25" d="M17,65s0,45,47,45,47-45,47-45H17Z"/><path class="cls-15" d="M52.61,113a65.41,65.41,0,0,0,22.79,0Z"/><line class="cls-15" x1="71" x2="95.29" y1="114" y2="118.55"/><line class="cls-16" x1="95.29" x2="103" y1="118.55" y2="120"/><circle class="cls-26" cx="5" cy="71" r="5"/><path class="cls-27" d="M26,77s-5,0-7-1.5A24.17,24.17,0,0,0,5,71"/><circle class="cls-26" cx="123" cy="71" r="5"/><path class="cls-27" d="M102,77s5,0,7-1.5A24.17,24.17,0,0,1,123,71"/><line class="cls-15" x1="46" x2="38.06" y1="108" y2="124"/><line class="cls-15" x1="86.94" x2="82" y1="124" y2="108"/><line class="cls-21" x1="47" x2="44.34" y1="106" y2="112"/><line class="cls-21" x1="83.66" x2="81" y1="112" y2="106"/><line class="cls-5" x1="25.42" x2="80.58" y1="78.58" y2="23.42"/><line class="cls-6" x1="35.32" x2="48.05" y1="55.95" y2="68.68"/><line class="cls-7" x1="38.15" x2="50.88" y1="53.12" y2="65.85"/><line class="cls-8" x1="40.98" x2="53.71" y1="50.29" y2="63.02"/><line class="cls-7" x1="63.61" x2="76.33" y1="27.67" y2="40.39"/><line class="cls-8" x1="66.44" x2="79.16" y1="24.84" y2="37.56"/><line class="cls-9" x1="52.29" x2="65.02" y1="38.98" y2="51.71"/><rect class="cls-10" height="18" rx="2" ry="2" transform="translate(-37.51 45.38) rotate(-45)" width="8" x="32.03" y="58.97"/><rect class="cls-11" height="18" rx="2" ry="2" transform="translate(-37.51 45.38) rotate(-45)" width="8" x="32.03" y="58.97"/><rect class="cls-10" height="18" rx="2" ry="2" transform="translate(-20.54 52.41) rotate(-45)" width="8" x="49" y="42"/><rect class="cls-11" height="18" rx="2" ry="2" transform="translate(-20.54 52.41) rotate(-45)" width="8" x="49" y="42"/><rect class="cls-10" height="18" rx="2" ry="2" transform="translate(-9.23 57.1) rotate(-45)" width="8" x="60.31" y="30.69"/><rect class="cls-11" height="18" rx="2" ry="2" transform="translate(-9.23 57.1) rotate(-45)" width="8" x="60.31" y="30.69"/><line class="cls-28" x1="99" x2="17" y1="126" y2="126"/><line class="cls-28" x1="119" x2="110" y1="126" y2="126"/></svg>