<?xml version="1.0" ?><svg enable-background="new 0 0 201.397 203.631" id="Fixed" version="1.1" viewBox="0 0 201.397 203.631" xml:space="preserve" xmlns="http://www.w3.org/2000/svg" xmlns:xlink="http://www.w3.org/1999/xlink"><g><g><path d="M16.092,102.66c0,33.6,19.5,62.7,47.9,76.5l-40.5-111.1C18.792,78.66,16.092,90.36,16.092,102.66z" fill="#464342"/><path d="M158.492,98.36c0-10.5-3.8-17.8-7-23.4c-4.3-7-8.3-12.9-8.3-19.9c0-7.8,5.9-15.1,14.3-15.1    c0.4,0,0.7,0,1.1,0.1c-15.1-13.8-35.3-22.3-57.4-22.3c-29.7,0-55.8,15.2-71,38.3c2,0.1,3.9,0.1,5.5,0.1c8.8-0.1,22.5-1.1,22.5-1.1    c4.6-0.3,5.1,6.5,0.5,7c0,0-4.6,0.5-9.7,0.8l30.9,92l18.6-55.8l-13.2-36.3c-4.6-0.3-8.9-0.8-8.9-0.8c-4.6-0.3-4-7.3,0.5-7    c0,0,14,1.1,22.4,1.1c8.9,0,22.6-1.1,22.6-1.1c4.6-0.3,5.1,6.5,0.5,7c0,0-4.6,0.5-9.7,0.8l30.7,91.3l8.5-28.3    C155.692,114.06,158.492,105.66,158.492,98.36z" fill="#464342"/><path d="M102.592,110.06l-25.5,74.1c7.6,2.2,15.7,3.5,24,3.5c9.9,0,19.4-1.7,28.2-4.8c-0.2-0.4-0.4-0.8-0.6-1.2    L102.592,110.06z" fill="#464342"/><path d="M175.692,61.86c0.4,2.7,0.6,5.6,0.6,8.7c0,8.6-1.6,18.3-6.5,30.4l-26,75c25.3-14.7,42.2-42.1,42.2-73.4    C186.092,87.86,182.292,73.96,175.692,61.86z" fill="#464342"/><path d="M101.092,3.66c-54.6,0-99,44.4-99,99s44.4,99,99,99s99-44.4,99-99    C200.192,48.06,155.692,3.66,101.092,3.66z M101.092,197.16c-52.1,0-94.5-42.4-94.5-94.5s42.4-94.5,94.5-94.5s94.5,42.4,94.5,94.5    S153.192,197.16,101.092,197.16z" fill="#464342"/></g></g></svg>