<?xml version="1.0" ?><svg height="60px" version="1.1" viewBox="0 0 60 60" width="60px" xmlns="http://www.w3.org/2000/svg" xmlns:xlink="http://www.w3.org/1999/xlink"><title/><desc/><defs/><g fill="none" fill-rule="evenodd" id="Page-1" stroke="none" stroke-width="1"><g id="Social_icons" transform="translate(-722.000000, -652.000000)"><g id="Invision" transform="translate(722.000000, 652.000000)"><path d="M0,30 C0,13.4314567 13.4314567,0 30,0 C46.5685433,0 60,13.4314567 60,30 C60,46.5685433 46.5685433,60 30,60 C13.4314567,60 0,46.5685433 0,30 Z" fill="#FF3366" id="back"/><path d="M41.7136816,45.5258302 C38.4276034,45.5258302 36.8565525,43.5743669 36.8565525,40.9064828 C36.8565525,40.1452737 36.9513191,39.3350473 37.1894853,38.5253977 L38.7613052,32.9059061 C38.9516075,32.2865587 38.9994714,31.7156519 38.9994714,31.1914556 C38.9994714,29.3824307 37.9041761,28.2865587 36.1420539,28.2865587 C33.9034072,28.2865587 32.4271229,29.8499207 31.6653371,32.9456966 L28.6172329,45.1283099 L23.2835792,45.1283099 L24.2408573,41.3293767 C22.6732664,43.9048008 20.4959393,45.521409 17.8097938,45.521409 C14.5713874,45.521409 13.0474314,43.6666346 13.0474314,40.8563122 C13.0474314,40.1431592 13.142967,39.2987169 13.3332693,38.4890672 L15.762026,28.5970013 L12,28.5970013 L13.142967,24.3680619 L22.1913595,24.3680619 L18.6192513,38.5186698 C18.3810851,39.4242395 18.285934,40.1660339 18.285934,40.6890768 C18.285934,41.595031 18.7318949,41.855303 19.4292854,42.0125426 C19.8539094,42.1076938 23.2382142,42.0634821 25.0808785,37.9679466 L27.4267865,28.5970013 L23.6168965,28.5970013 L24.7598635,24.3680619 L32.9034552,24.3680619 L31.8560238,29.13696 C33.2844442,26.4696526 36.1420539,23.9261377 38.9516075,23.9261377 C41.9518478,23.9261377 44.4284685,26.0588688 44.4284685,30.1544043 C44.4284685,31.2016435 44.2856456,32.3396127 43.9046566,33.625018 L42.3803162,39.0988034 C42.2380701,39.6714402 42.14215,40.1466193 42.14215,40.5750877 C42.14215,41.5271757 42.5235235,42.0029314 43.238022,42.0029314 C43.9521361,42.0029314 44.8571291,41.477774 45.904945,38.5742227 L48,39.3831035 C46.7618819,43.7169975 44.5236196,45.5258302 41.7136816,45.5258302 Z M20.0480561,15 C21.8103705,15 23.2864626,16.3809409 23.2864626,18.1899659 C23.2864626,20.0003364 21.8103705,21.3814696 20.0480561,21.3814696 C18.285934,21.3814696 16.8098419,20.0003364 16.8098419,18.1899659 C16.8098419,16.3809409 18.285934,15 20.0480561,15 Z" fill="#FFFFFF" id="Combined-Shape"/></g></g></g></svg>